<?xml version="1.0" encoding="UTF-8"?>
<svg width="1200pt" height="1200pt" version="1.1" viewBox="0 0 1200 1200" xmlns="http://www.w3.org/2000/svg" fill="#1b4d70">
 <path d="m759.42 925.96s15.238 4.2617 18.637 9.3477c17.953 26.52 61.008 113.35 68.879 206.65 0 0-261.89 81.805-551.06 21.527 0 0 69.613-109.09 127.74-152.15 0 0 7.8828-6.457 3.5742-25.836 0 0-99.324-10.598-150.68-55.234-32.977-28.715-22.645-64.453-27.254-79.645-9.5156-12.145-38.746-24.406-26.566-40.164-8.6172-1.4648-30.133-5.0391-33.707-20.832-3.5742-15.758 1.4141-45.887 1.4141-55.969 0 0-53.82-13.609-45.887-45.887 7.8828-32.293 50.93-53.125 50.195-105.48-0.68359-52.391-21.227-38.914-31.559-91.488-24.406-124 2.3633-214.05 36.898-274.29-0.89844-0.26562-1.8125-0.5625-2.7109-0.86328-6.4219-2.2422-12.266-5.207-17.52-8.7852-19.5-6.6367-33.758-21.395-35.902-39.91-0.38281-3.7422-0.34766-7.4023 0.21484-11.062 1.6797 8.1367 11.664 22.211 11.664 22.211s0.68359-1.6797 5.9023 5.5547c10.68 8.9141 25.32 14.809 41.629 15.758 2.4102 0.13281 4.8242 0.16797 7.1875 0.085937 2.9297-4.5234 5.9414-8.8203 8.8672-12.91-6.1562-1.1992-12.266-3.4922-18-6.8398-27.121-16.02-35.988-51.191-19.848-78.527 3.9609 31.512 32.461 53.941 63.719 50.027 1.5469-0.21484 3.0977-0.46875 4.6094-0.78125 5.6406-5.7734 10.895-10.68 15.504-14.676 0.26562-0.26562 0.51562-0.46875 0.81641-0.73047 10.895-9.5156 18.035-14.125 18.035-14.125 55.234-36.602 168.12-104.1 323.11-113.4 154.99-9.3672 197.3 18.617 246.08 76 0 0 118.39 60.277 139.92 201.66 26.219 172-40.895 450.59-151.37 490.07 0 0.003907-98.328 22.945-82.535 150.69z"/>
 <path d="m266.17 135.04c-0.30078 0.26562-0.5625 0.46875-0.81641 0.73047-0.5625-1.9766-0.51562-2.4102 0.81641-0.73047z"/>
</svg>
