<?xml version="1.0" encoding="UTF-8"?>
<svg width="1200pt" height="1200pt" version="1.1" viewBox="0 0 1200 1200" xmlns="http://www.w3.org/2000/svg">
 <path d="m744.43 404.74c-0.84375 2.5273-7.082 21.246-6.2383 18.719-2.4023-0.42969-57.266-10.223-53.762-9.6016-1.1445 2.4102-12.422 26.164-11.281 23.762l-16.078-2.3984-1.6797 19.199c2.418 0.058594 30.977 0.78125 28.559 0.71875 0.84375-2.5273 9.7227-29.168 8.8789-26.641 2.4609 0.16406 54.168 3.5781 50.879 3.3594 0.5-2.4062 5.0625-24.246 4.5586-21.84l41.762 0.48047-43.68-5.5195z"/>
 <path d="m685.39 328.18c2.1719-2.4219 23.051-25.703 20.879-23.281 2.4805 1.4258 57.68 33.18 54.238 31.199 2.418-1.2617 24.98-13.023 22.559-11.762l38.641 30.48c-2.3984-2.2617-40.34-38.043-37.922-35.762-2.4648 1.0117-25.266 10.371-22.801 9.3594-2.4062-1.6914-60.074-42.18-56.398-39.602-2.4102 2.2305-22.09 20.473-19.68 18.238l-25.199-25.922-13.199 13.922c2.4414 2.082 41.32 35.203 38.883 33.129z"/>
 <path d="m965.47 264.82c0.41406-2.4062 5.9336-34.566 5.5195-32.16 2.4102-0.86719 46.734-16.855 43.922-15.84 0.53125-2.4023 5.8164-26.164 5.2812-23.762l22.32-1.9219-2.8789-18.961c-2.4023 0.50391-35.523 7.4648-33.121 6.9609-0.25781 2.4023-3.3828 31.203-3.1211 28.801-2.4023 1.2109-41.594 20.926-39.121 19.68-0.13281 2.4102-2.0547 37.215-1.9219 34.801l-24.48 10.559c2.4258-0.71484 30.027-8.875 27.602-8.1562z"/>
 <path d="m740.59 253.06c2.4805-2.0234 28.641-23.387 26.16-21.359 1.543 2.4023 31.684 49.316 29.762 46.32 2.375-2.3984 24.938-25.203 22.559-22.801l21.359 35.281c-1.1484-2.4062-21.449-44.941-20.16-42.238-2.4414 2.0703-24.52 20.793-22.078 18.719-1.2695-2.4492-29.363-56.68-27.602-53.281-2.4141 1.6172-27.133 18.176-24.719 16.559l-14.883-30.719-16.801 9.1172c1.4414 2.4141 28.086 47.234 26.402 44.402z"/>
 <path d="m863.47 201.94c-0.17188 2.457-3.3125 47.133-3.1211 44.398 2.4141 1.1836 26.895 13.184 24.48 12l2.6406 31.922c0.10156-2.4141 1.5391-36.734 1.4414-34.32-2.4102-1.5703-23.051-15.008-20.641-13.441 0.46484-2.4219 9.9648-52.121 9.3594-48.961-2.4414-1.0703-23.801-10.43-21.359-9.3594 1.1992-5.5195 2.1602-11.039 3.1211-16.559l-16.559-9.6016c-2.3945 14.375-2.8672 21.957-4.3203 36.48 2.418 0.72266 27.379 8.1602 24.957 7.4414z"/>
 <path d="m1055.3 308.35 9.3594-16.801c-2.4062-1.1484-34.566-16.508-32.16-15.359-1.1523 2.4023-12.191 25.441-11.039 23.039-2.4102-0.36328-38.895-5.8867-36.48-5.5195-1.875 2.4531-21.312 27.895-19.441 25.441l-17.281-8.1602c2.4102 1.5742 20.41 13.336 18 11.762 2.375-2.4023 23.496-23.762 21.121-21.359 2.4258 0.71094 42.637 12.508 40.078 11.762 1.6211-2.4102 12.422-18.492 10.801-16.078z"/>
 <path d="m673.66 577.97c-0.23828-0.48047-0.23828-0.71875-0.23828-1.1992-54 55.922-268.56 273.6-398.4 324.72 0 0-144.24 76.32-168.48 80.398-24.48 4.0781-38.641-0.71875-47.039 8.1602-8.6406 8.8828-38.16 12-35.281 25.441 0 0-2.1602 28.32 30.719 26.398 32.641-1.9219 44.398-7.6797 44.398-7.6797s16.559 17.281 105.6-11.039c0 0 73.441-8.3984 138.72 0.23828 65.52 8.6406 103.2 8.3984 110.16-27.359 6.9609-35.52-14.398-57.117 8.8789-71.281 23.281-14.16 59.281-54.719 147.6-95.762 61.441-28.559 157.92-76.078 228.48-138.24-48.238-12.719-94.32-37.922-111.36-49.922-15.602-11.035-46.805-38.395-53.762-62.875z"/>
 <path d="m1053.8 436.85c-57.18 42.887-88.555 26.629-96.719 30.719-2.6055 0.97266-14.852 17.867-29.039 34.078 16.324 20.16 30 48.961 38.16 67.922 32.879 14.16 92.879 22.32 167.04 22.32 19.922 0 35.039-0.71875 41.52-0.96094h1.1992v-65.281z"/>
 <path d="m1043.7 723.89c56.641 52.32 113.76 104.16 132.24 118.8v-98.879c-15.621-2.3711 38.449 5.1719-132.24-19.922z"/>
 <path d="m785.02 470.93c10.961-13.848 31.613-13.441 48-13.441 21.289-5.918 38.895 3.4141 55.922 14.879 10.445 6.4648 21.395 12.812 21.602 12.961 19.484-21.727 25.34-35.527 38.641-40.559 18.848-6.5977 25.586 7.082 66.238-12-33.332-23.652-34.23-29.238-67.441-45.84-1.6797 0.23828-5.5195 0.23828-5.5195 0.23828 0 13.027-6.625 23.836-17.52 29.281-0.23828 0.48047-0.23828 0.96094-0.48047 1.4414-3.6016 13.441-15.121 22.078-29.281 22.078-1.9219 0-3.8398-0.23828-5.7617-0.48047-5.7617 8.3984-15.359 13.441-26.398 13.441-6.7188 0-13.441-1.9219-19.922-4.5586-12.465 9.9688-29.809 10.488-44.16-1.9219-6.4805 6.9609-12.961 13.922-19.199 20.398l4.8008 4.5586s0.23828-0.23828 0.48047-0.47656z"/>
 <path d="m1020.9 430.37c5.6289-2.8164 9.9883-5.1602 12.961-7.9219l-15.602-11.281z"/>
 <path d="m1175.9 719.48v-104.54c-23.859 1.1133-165.15 6.1289-228.32-27.707 0 0-28.703-71.699-52.723-83.531-24.016-11.832-37.375-29.875-58.812-22.023 0 0-5.625-0.35156-12.301-0.11719-17.848 0.21484-25.703 2.8281-17.105 14.645 5.0391 6.5625 15.348 12.77 35.027 15.82 0 0 35.734 17.922 15.113 23.195-20.738 5.1562-69.941-30.461-69.941-30.461s-20.711-7.7383-23.758-20.512c0 0-13.965-13.348-19.707-5.7305-5.7422 7.6133-5.7422 10.309-5.1562 13.238 0 0-23.082-0.35156-21.559 25.773 0 0-26.359 7.8516-14.059 32.336 0 0-10.074 7.0312-5.9727 21.441 4.0977 14.41 26.594 37.137 44.754 50.027 18.16 12.887 73.926 42.527 124.89 50.844 17.086 2.7852 246.87 38.48 309.63 47.297z"/>
 <path d="m873.87 336.43c-11.754 8.1953-12.527 19.684-12.527 19.684s-27.832-6.6914-25.98 18.824c0 0-16.703 6.1836-16.855 13.145-0.15625 6.957 1.3906 13.762 1.3906 13.762s-18.867 12.988-6.3398 25.516c12.527 12.527 21.648-4.4844 20.41-11.91 0 0 34.02 25.516 37.109 6.3398 0 0 5.4102-6.3398-0.77344-17.473 0 0 27.527 20.258 31.078 7.2656 3.5586-12.988 1.7031-15.926 1.7031-15.926s17.629 4.1758 15.152-10.98c-2.4727-15.156-16.234-26.906-16.234-26.906s11.598-6.0742 21.184 0.82812c9.5898 6.9023 29.426 3.8633 29.426 3.8633s26.113 12.648 37.527 21.301c0 0-4.1875-30.508-23.473-39.77 0 0-15.34-20.555-29.875-12.051-14.535 8.5039-18.246 12.527-17.473 15.621 0.011719 0.003906-33.695-19.328-45.449-11.133zm-58.59 73.891c1.5234-2.8789 8.9883-2.4336 10.738 4.8711 2.293 9.5664-15.52 4.1484-10.738-4.8711zm49.996 2.3945c-0.88672 1.418-2.5859 2.0742-3.8438 3.1758-0.66406 0.58203-3 3.8125-3.5742 4.0312-1.2422 0.48047-5.6719-0.62109-8.3828-3.5391-3.7422-4.0312-3.4883-11.332-2.1875-12.445 2.5547-2.1836 14.625 1.4844 16.746 3.1133 1.6758 1.2969 2.3633 3.8672 1.2422 5.6641zm76.91-68.262c4.2539 2.6367 3.2891 5.4609 0.26172 5.5625-15.488 0.53125-22.855-19.523-0.26172-5.5625zm-44.301 30.766c1.4336-0.6875 10.684 1.2695 13.488 3.9062 10.199 9.5938-12.168 21.676-14.594 2.6719-0.17188-1.3438-0.050782-6.0234 1.1055-6.5781zm-4.5469 33.785c-0.22656 0.16797-0.46484 0.32812-0.72656 0.43359-0.41406 0.16016-0.875 0.16797-1.3164 0.14844-4.6406-0.21484-6.0352-2.2812-8.4375-3.5078-4.2734-2.1836-4.668-0.94922-4.7539-9.1367-0.125-10.867 32.668-0.85938 15.234 12.062z"/>
</svg>
