<?xml version="1.0" encoding="UTF-8"?>
<svg width="1200pt" height="1200pt" version="1.1" viewBox="0 0 1200 1200" xmlns="http://www.w3.org/2000/svg">
 <path d="m889.52 632.46c2.2266-2.4141 29.305-31.789 27.078-29.371-1.6836-2.3984-11.785-16.777-10.098-14.379l8.1055-9.4844-8.1055-6.5781c-1.6992 2.4023-13.172 18.617-11.473 16.219 2.0859 2.4297 14.168 16.5 12.086 14.074-1.8906 2.4414-24.988 32.273-23.098 29.832l11.012 9.6367-17.742 25.547c2.0391-2.4688 23.301-28.164 21.262-25.695-0.003907-0.007813-11.254-12.215-9.0273-9.8008z"/>
 <path d="m987.88 767.08-2.293 2.1406-12.086 10.246c-2.418-1.5625-27.961-18.086-25.547-16.523-2.4102 1.5195-19.391 12.23-16.98 10.707l-20.344-8.8711 19.887 11.012 0.30859 0.30859c2.4062-1.2031 19.23-9.6172 16.828-8.4141l24.172 18.969 1.8359 1.3789c2.3984-1.6602 16.781-11.605 14.379-9.9414 3.2148 2.7539 6.4258 5.0469 9.793 7.6484l8.8711-5.0469c-5.0469-4.1289-10.555-7.957-16.062-11.777z"/>
 <path d="m994.3 688.91c0.18359 2.4102 1.8633 24.59 1.6836 22.18-2.4102 0.18359-42.812 3.2539-40.23 3.0586 0.5 2.4062 4.7852 22.902 4.2852 20.5l-30.441 1.5273c2.418 0.066407 35.457 0.98438 33.043 0.91797-0.40625-3.2188-2.7539-21.848-2.4492-19.43 2.4648-0.007812 45.574-0.16016 42.832-0.15234-0.035157-2.418-0.34375-22.914-0.30859-20.5l26.465 0.45703v-10.25l-30.75 1.3789z"/>
 <path d="m929.75 850.61 4.4336-28.914-0.15234-1.2227c-2.4141-1.5156-22.148-13.906-19.734-12.391l3.9766-18.203c-0.75781 2.4102-6.7266 21.379-5.9648 18.969 2.4609 1.8633 20.059 15.172 17.594 13.309-0.59766 2.457-8.2461 33.816-7.6484 31.359 2.4062 2.1133 14.945 13.125 12.543 11.012l-7.8008 14.227 9.4844 4.5898c1.0312-2.457 10.055-24.027 9.0234-21.57-2.3984-1.6992-18.156-12.867-15.754-11.164z"/>
 <path d="m934.79 692.89c0.47266-2.3984 3.8359-19.535 3.3672-17.133 2.418-1.1172 48.883-22.57 46.047-21.262-0.44922-2.4023-3.8125-20.457-3.3672-18.055l27.383-7.6484-3.2148-9.9453c-2.5039 0.90234-36.469 13.141-33.961 12.238 0.64453 2.4414 5.8438 22.18 5.1992 19.734-2.4141 1.3281-44.105 24.25-41.457 22.793-0.32031 2.418-2.6094 19.859-2.293 17.438l-34.266 13.465 35.949-11.625z"/>
 <path d="m874.06 783.3c0.58984 2.457 5.332 22.191 4.7422 19.734-2.418 2.1758-25.062 22.523-22.641 20.348 1.2031 2.4062 7.168 14.336 5.9648 11.93l-14.992 7.4961 5.1992 9.0234c2.4219-1.5547 23.379-15.016 20.957-13.461-1.6055-2.4219-10.629-16.035-9.0234-13.613 2.1914-2.4062 21.008-23.055 18.816-20.648-0.88672-2.5117-7.9258-22.398-7.0352-19.891l12.238-7.9531c-2.4102 1.1914-16.637 8.2266-14.227 7.0352z"/>
 <path d="m291.65 642.41 11.012-9.6367-1.2227-1.5273-21.875-28.305c2.0859-2.4297 14.168-16.5 12.086-14.074-1.6992-2.4023-13.172-18.621-11.473-16.219l-8.1055 6.5781 8.1055 9.4844c-1.6836 2.3984-11.785 16.777-10.098 14.379 2.2266 2.4141 29.301 31.789 27.078 29.371l-8.4102 8.8711-0.61328 0.91797 0.61328 0.91797 20.652 24.781z"/>
 <path d="m238.72 762.95c-2.418 1.5625-27.961 18.086-25.547 16.523-2.4258-2.0898-16.805-14.48-14.379-12.391-5.0117 3.4531-12.164 8.1758-18.816 13.613l8.8711 5.0469c3.3672-2.6016 6.5781-4.8945 9.793-7.6484 2.3984 1.6602 16.781 11.605 14.379 9.9414 2.4297-1.9023 28.441-22.25 26.008-20.348 2.4062 1.2031 19.23 9.6172 16.828 8.4141l0.30859-0.30859 19.887-11.012-20.344 8.8711c-2.418-1.5117-19.398-12.223-16.988-10.703z"/>
 <path d="m192.37 688.91c-2.4141-0.11719-37.293-1.8008-34.875-1.6836v10.25l26.465-0.45703c-0.035157 2.418-0.34375 22.914-0.30859 20.5 2.4648 0.007813 45.574 0.16016 42.832 0.15234-0.30469 2.4219-2.75 21.848-2.4453 19.43 73.629-2.043 2.4141-0.046874 2.5977-2.4453 0.5-2.4062 4.7812-22.902 4.2812-20.5-4.1758-0.31641-42.688-3.2461-40.23-3.0586 0.18359-2.418 1.8672-24.598 1.6836-22.188z"/>
 <path d="m272.38 808.08c-2.4141 1.5156-22.148 13.906-19.734 12.391l-0.15234 1.2227 4.4336 28.914c-2.3984 1.7031-18.156 12.871-15.758 11.168 1.0273 2.457 10.055 24.027 9.0234 21.57l9.4844-4.5898-7.8008-14.227c2.4062-2.1133 14.949-13.125 12.543-11.012-3.1289-12.832-8.25-33.816-7.6484-31.359 2.4609-1.8633 20.059-15.172 17.594-13.309-13.117-41.711-0.18359-3.1797-1.9844-0.76953z"/>
 <path d="m251.88 673.61c-3.5703-1.9648-43.922-24.145-41.457-22.793 0.64453-2.4414 5.8438-22.18 5.1992-19.734-2.5039-0.90234-36.465-13.141-33.961-12.238l-3.2148 9.9453 27.383 7.6484c-0.44922 2.4023-3.8125 20.457-3.3672 18.055 5.9609 2.7539 48.738 22.504 46.047 21.262 0.47266 2.3984 3.8359 19.535 3.3672 17.133h0.61328l35.949 11.625-34.266-13.465c-0.31641-2.418-2.6094-19.855-2.293-17.438z"/>
 <path d="m330.51 823.38c-2.418-2.1758-25.059-22.523-22.641-20.348 0.58984-2.457 5.332-22.191 4.7422-19.734-31.328-15.492-2.4688-1.4844-1.9883 0.91797-0.88672 2.5117-7.9258 22.398-7.0352 19.891 2.1914 2.4062 21.008 23.055 18.82 20.648-1.6055 2.4219-10.633 16.035-9.0273 13.613 2.4219 1.5547 23.379 15.016 20.957 13.461l5.1992-9.0234-14.992-7.4961c1.2031-2.4023 7.168-14.336 5.9648-11.93z"/>
 <path d="m363.15 830.88c-12 85.68-7.9219 201.12-7.9219 201.12h216.72s8.8789-27.117 0.48047-56.16c-50.508 11.902-170.77-60.492-209.28-144.96z"/>
 <path d="m610.59 984.72c-1.1992 24.48-8.1602 47.281-8.1602 47.281h216.48c15.84-50.879 13.922-115.92 7.4414-169.92-37.668 60.652-151.04 153.21-215.76 122.64z"/>
 <path d="m597.15 307.44c45.602 0 85.922-4.5586 101.76-6.7188 9.1211-29.52 30.238-97.441 37.199-132.72h-286.8c5.5195 31.199 16.801 87.602 24 122.4 36.641 14.25 84.531 17.039 123.84 17.039z"/>
 <path d="m777.88 538.08c-0.23828-30.719 3.3594-61.199 9.1211-90.238l-369.6-13.199c10.641 91.75 4.0234 86.262 4.0781 102.96 7.3867 8.6875 17.414 22.828 18 24 23.336 4.6641 53.395 26.84 62.641 57.121 5.3125 17.566 4.6133 55.801 4.0781 74.16 57.801-1.8945 126.58-2.8242 184.32 0.71875-1.6602-62.363-3.1719-106.36 54.238-130.56 5.0391-2.3984 11.52-4.8008 18.719-5.2812 3.125-4.8008 7.9258-11.762 14.406-19.684z"/>
 <path d="m397.47 322.58c6.6289 22.773 12.105 55.922 16.719 87.926l377.93 13.547c6.918-28.539 15.566-54.773 24.793-78.121l-3.1719-3.4648c-100.99-25.16-66.191-16.543-73.715-18.297 11.867-13.98 39.312-153.44 39.992-156.11h-19.32c-6.793 36.781-32.156 118.98-43.59 154.4-71.648 6.9492-161.47 17.938-242.38-5.0703 0 0-10.121-5.4727-22.305-8.793-6.7188-33.172-21.426-106.16-27.773-140.54h-19.316s10.875 98.199 20.348 140.01c-8.6133 3.1523-20.547 9.9062-28.215 14.516z"/>
 <path d="m714.51 695.28c14.664 0.79297 23.152 1.9375 30 2.6406 15.043-53.145-3.5938-59.605 5.0391-110.64-40.812 20.402-36.516 56.152-35.039 108z"/>
 <path d="m454.59 695.04c2.4102-0.11328 25.137-1.1172 27.602-1.1992 1.4922-47.703 4.7188-80.238-30.961-101.52 6.2617 50.91-9.2148 54.34 3.3594 102.72z"/>
 <path d="m810.04 841.92c-7.4414-2.1602-13.199-7.1992-17.281-15.602-22.922-12.344-18.238-37.801-18.238-54.719-22.328 4.9492-43.312-13.871-36.961-50.398-85.199-8.8789-198.72-6-276.48-2.3984 2.8789 11.281 3.3594 28.078-4.0781 39.602-8.8242 13.633-20.609 13.133-23.039 13.922-3.1211 0-6.2383-0.48047-9.1211-1.1992 0.94922 19.949 3.7266 43.504-18 55.199-3.1211 6.2383-6.9609 10.801-12 13.199 42 66.719 140.88 124.08 175.44 112.32 5.4062-35.355 32.254-27.59 38.398 3.1211 42.961 44.633 166.8-48.488 201.36-113.05z"/>
 <path d="m1072.3 261.46c-38.629-28.543-115.02-93.406-115.02-93.406h-51.301l0.035156-0.058594h-101.52c-0.53125 2.457-18.16 92.695-32.16 140.4 21.855 5.9375 42.758 9.8438 53.762 12l0.71875 0.96094c16.703-39.301 27.887-58.223 33.367-67.93 0.51562 0.40625 167.44 132.02 168.88 147.27 1.4414 15.57-155.38 102.05-189.69 117.62-34.598 15.562-59.672 58.516-59.672 58.516-12.973 8.0742-6.6289 68.898-4.9023 84.176 2.6953 29.145-27.105 85.945-7.4961 87.348 8.3594 0.28906 15.277-13.547 18.738-25.086 3.457-11.527 12.973-28.25 12.973-28.25 0.57422 10.094 0.86719 67.172-0.86719 91.098-1.7266 23.926 13.262 20.18 13.262 20.18 6.3438 30.559 13.551-2.3086 24.215-25.082 10.668-22.773 9.2266-64 15.281-90.516 5.7656-26.234-2.5977-48.719-2.5977-48.719s-27.098-64.285 55.641-85.328c83.027-21.047 228.89-94.266 264.35-122.52 35.168-28.535-57.367-144.43-96-172.68z"/>
 <path d="m388.57 806.31s14.988 3.7422 13.262-20.18c-1.7305-23.926-1.4414-81.004-0.86719-91.098 0 0 9.5156 16.723 12.973 28.25 3.4648 11.535 10.383 25.371 18.738 25.086 19.02-1.3594-10.133-58.852-7.4961-87.348 1.7266-15.281 8.0742-76.105-4.9023-84.176 0 0-25.078-42.953-59.672-58.516-34.305-15.57-191.13-102.05-189.69-117.62 1.4414-15.281 168.93-147.31 168.93-147.31l0.003906-5.1211c14.012 7.0781 36.688 26.973 49.227 51.238 2.3984-1.1992 5.5195-3.1211 9.3594-5.0391-8.3984-47.039-16.559-120.24-17.039-123.84l-0.24219-2.6406h-41.52v0.058594h-96.934s-76.395 64.863-115.02 93.406c-38.633 28.25-131.17 144.14-95.996 172.68 35.457 28.25 181.33 101.47 264.35 122.52 82.734 21.043 55.641 85.328 55.641 85.328s-8.3633 22.488-2.5977 48.719c6.0547 26.52 4.6133 67.746 15.281 90.516 10.66 22.781 17.867 55.645 24.211 25.09z"/>
</svg>
