<?xml version="1.0" encoding="UTF-8"?>
<svg width="1200pt" height="1200pt" version="1.1" viewBox="0 0 1200 1200" xmlns="http://www.w3.org/2000/svg" fill="#1b4d70">
 <path d="m783.45 941.04c-6.2383 11.281-12.961 19.199-17.762 23.762-5.7617 14.641-18.961 44.641-36.238 69.602-0.71875 20.16-4.0781 40.078-10.078 59.52-19.559 62.504-56.094 78.625-110.4 73.199-26.879-3.1211-55.68-7.4414-83.281-18.961-98.676-40.922-149.87-167.09-137.28-227.04 9.2148-44.93 72.473-124.29 121.92-131.28 34.648-4.3203 83.281 11.117 112.56 29.52 2.6406-0.96094 4.8008-1.9219 6-2.8789 0-0.23828 2.3984-3.6016 7.6797-12.48 16.559-26.879 40.078-65.52 73.199-80.398 13.441-13.199 52.801-49.68 71.52-64.559v-0.23828c7.6797-74.641 24.719-154.8 34.801-196.56-4.8008-2.8789-9.1211-5.2812-12.961-6.9609-42.238-18.48-62.641-110.88-49.922-173.52 9.1211-43.199 57.359-78 88.559-92.641-60.719-34.078-183.6-60-200.16-75.602-20.641-19.441-4.5586-89.52-4.5586-89.52h-189.84s4.0781 55.441-14.16 93.121c-17.762 37.68-147.36 91.922-207.6 115.68-60.238 23.762-84 107.76-113.52 193.68-29.762 86.16-53.039 356.16-53.039 356.16-48 201.84 0 393.36 0 393.36h99.359c-18.48-37.922 4.8008-186.24 4.8008-186.24-8.6406-120.72 76.32-383.76 76.32-383.76s36 56.879 50.641 137.76c24.961 136.08-69.121 432.24-69.121 432.24h577.2s-5.0391-80.398-11.281-123.36c-2.8789-20.164-2.8789-61.445-3.3555-111.61z"/>
 <path d="m581.85 827.04c1.1992 0 2.3984 0 3.6016-0.23828-17.367-7.2852-52.074-16.266-72-13.199-36.887 4.8789-94.277 75.527-101.76 112.32-10.352 50.469 36.488 164.14 123.12 199.92 24.93 10.406 92.242 25.645 120.96 14.16 27.973-11.262 40.375-45.641 46.078-75.121-31.445 23.355-66.281 3.6953-60.961-36.238-30.48 16.32-42 16.559-47.281 16.559-10.801 0-20.16-3.8398-26.398-11.039-14.797-14.797-16.414-39-5.7617-57.117-16.586 1.2695-32.082-0.29688-40.559-14.883-8.8789-16.32-9.6016-31.922-2.8789-45.359 2.6406-6 8.3984-13.922 19.441-19.68-30.004-24.387-0.30859-77.543 44.398-70.086z"/>
 <path d="m1118.1 448.8c-36-84.48-243.36-236.4-252.96-242.88-5.2812-0.71875-78.48 33.84-88.32 80.641-12.238 59.52 10.559 135.6 36 146.64 37.68 16.559 123.36 91.199 137.28 103.44-48.48 45.84-139.44 131.28-148.32 136.8-11.52 7.1992-76.801 68.398-78.719 70.559-28.078 10.32-50.641 47.52-65.762 72.238-4.5586 7.6797-8.3984 13.68-11.039 16.801-10.504 12.383-57.898 19.766-67.922 17.762-12.238-3.0664-33.574 8.8867-27.359 25.199 1.6758 4.0781 7.9219 9.6016 44.16 9.6016 16.559 0 33.84-0.96094 43.68-1.6797 3.8398-0.23828 6.4805-0.48047 7.4414-0.48047 0.96094 0 2.3984 0.23828 2.8789 1.1992 0.23828 0.96094-0.23828 2.1602-0.96094 2.3984-3.8398 2.1602-68.398 24-89.762 28.078-9.6016 1.9219-16.078 6-18.961 12.48-3.1211 6.2383-2.3984 14.16 1.9219 22.32 7.3984 12.328 96.121-13.637 107.04-17.281 1.9219-1.4414 7.9219-5.2812 12.961-5.2812 1.9219 0 3.3594 0.48047 4.3203 1.4414 0.71875 6.4805-46.801 39.602-64.559 44.641-18.297 5.6641-31.059 29.66-15.84 44.879 13.02 14.883 85.367-35.652 102.72-47.762-59.301 115.71 9.6758 104.67 57.602-19.922 0.96094-0.71875 24.48-17.039 31.922-70.559 7.4414-51.359 82.078-117.36 82.324-117.6 110.16-42 241.68-114.48 281.52-155.28 43.547-44.16 11.391-76.332-23.285-158.39zm-557.28 425.76c-13.191-14.652 19.543-20.508 24.961-6.7188 5.0039 13.348-16.301 15.383-24.961 6.7188zm-7.4414 71.285c-4.6562-1.332-10.738-9.5156-7.4414-15.121 3.1211-5.2812 10.801-5.0391 16.078-6.7188 8.9727-2.6914 16.73-1.5859 17.762 7.6797 0.24219 2.1602-20.863 16.676-26.398 14.16zm47.262 66.582c-30.449 0.21484-8.1406-22.582-7.0977-24.984 2.3125-5.3438 5.6484-9.3633 12.188-8.6484 16.668 1.832 26.742 33.41-5.0898 33.633zm71.59 26.387 0.86719-13.309c0.89844-5.375 11.891-14.723 17.652-4.3398 8.582 19.309-18.52 26.816-18.52 17.648z"/>
 <path d="m843.01 931.67c-3.6641-3.0586-24.297-20.293-21.84-18.238 2.4023-1.5312 52.902-33.734 49.68-31.68-2.2695-2.4062-22.43-23.766-20.16-21.359l31.441-18.719-8.8789-9.8398c-2.4023 1.6445-41.367 28.348-38.879 26.641 2.4023 2.2539 25.684 24.094 23.281 21.84l-41.762 30.961-2.1602 1.6797c8.7617 6.6367 27.18 20.586 24.719 18.719l-34.078 23.52c2.3984-1.4648 41.109-25.027 38.637-23.523z"/>
 <path d="m851.41 969.83c-2.1641 5.4922-10.336 26.238-9.3594 23.762l-32.398 5.0391 33.359-3.1211 0.96094 0.23828c1.2539-2.4258 12.293-23.785 11.039-21.359 2.4258 0.11719 52.895 2.5547 49.68 2.3984 0.85938-2.5234 8.0586-23.641 7.1992-21.121 6.4805 0.23828 12.961 0.71875 19.199 0.96094l5.0391-10.801c-4.0352-0.19531-12.008-0.5-34.078-0.71875-0.51172 2.4023-5.5547 25.922-5.0391 23.52-2.4297 0.070313-48.535 1.2812-45.602 1.2031z"/>
 <path d="m944.77 1073.5h-29.039c-1.6211-2.4102-25.141-37.453-23.52-35.039-2.4141 0.082032-37.453 1.2812-35.039 1.1992l-13.199-21.602 11.281 23.52 0.48047 0.48047c2.4141 0.085938 36.016 1.2852 33.602 1.1992 1.3281 2.4297 22.211 40.59 20.879 38.16 2.4102 0.16016 27.852 1.8398 25.441 1.6797l4.8008 21.359 14.16-2.1602c-0.87109-2.5156-10.711-31.316-9.8477-28.797z"/>
 <path d="m827.17 1088.2c0.13281-2.4102 2.0508-37.453 1.9219-35.039-10.008-5.8086-29.312-17.012-26.879-15.602l6.7188-17.281-9.3594 17.281-0.23828 0.48047 0.96094 0.71875 23.281 16.32c-0.38281 2.4102-6.3828 40.09-6 37.68l3.1211 1.9219 15.121 6.4805-10.32 18.719 13.68 5.7617c0.98047-2.4766 12.5-31.516 11.52-29.039-2.5156-0.89844-26.035-9.2969-23.527-8.4023z"/>
</svg>
