<?xml version="1.0" encoding="UTF-8"?>
<svg width="1200pt" height="1200pt" version="1.1" viewBox="0 0 1200 1200" xmlns="http://www.w3.org/2000/svg" fill="#1b4d70">
 <path d="m1190.8 580.69c-5.3906 120.32-23.438 313.5-77.438 555.47-4.7344 20.906-21.938 36.281-43.031 38.156-65.25 5.25-130.97-3.3281-191.53-25.828-15-5.3906-26.156-18.047-30.188-33.75-37.547-146.39-54.656-307.74-43.875-457.78 33-34.594 78.422-54.094 121.18-74.578 62.156-28.125 126.61-52.031 191.34-73.219 29.531 16.922 62.812 37.5 73.547 71.531zm-380.81 27.188c80.062-54.141 173.11-87.328 263.58-119.62-39.328-16.641-80.391-29.156-121.64-39-47.109 18.656-90.562 45.281-128.06 79.312-5.9531 27.656-10.5 53.344-13.875 79.312zm383.21-203.34c-61.688 0.75-124.03 7.8281-183.56 25.125 65.203 20.438 133.31 44.906 183.42 92.953 1.3125-44.812 1.3125-84 0.14062-118.08zm-348.14 63.797c100.69-69.656 225.89-95.438 346.6-97.688-7.0781-122.34-30.891-162-52.641-189.32-7.5938-9.4688-15-17.719-23.297-25.125-130.87 57.609-216.94 184.13-270.66 312.14zm91.125-217.69c41.484-47.719 91.5-89.391 148.64-117.42-43.547-27-106.97-48.234-196.22-65.625-68.109 114.33-97.594 249.66-122.02 378.79 15.656 0.65625 31.594 7.6875 42.703 19.594 30.188-77.109 72.516-152.06 126.89-215.34zm-83.156-189.66c-44.625-7.5938-99.938-15.094-149.68-20.438-35.484 142.36-67.5 292.87-40.172 439.36 21.844-8.0625 45.75-15.656 67.828-25.828 3.6094-22.594 7.5938-43.828 12.141-66.797 19.406-93.234 43.734-186.98 83.016-274.18 7.875-17.766 17.062-35.203 26.859-52.125zm-183.61-23.953c-187.5-17.812-378.24-16.781-567.61 1.3594-20.062 1.875-36.938 16.031-42.188 35.25-39.75 140.58-57.656 289.5-52.781 435.84 0.84375 22.969 17.719 42.188 41.016 46.594 114.75 21.609 205.03 8.25 277.4-2.2031 103.92-12.891 206.02-30.703 305.58-63.094-29.203-151.03 1.9688-306.74 38.578-453.74z"/>
</svg>
