<?xml version="1.0" encoding="UTF-8"?>
<svg width="1200pt" height="1200pt" version="1.1" viewBox="0 0 1200 1200" xmlns="http://www.w3.org/2000/svg" fill="#1b4d70">
 <path d="m778.77 510.14c0 58.32-47.281 105.84-105.84 105.84-58.32 0-105.6-47.52-105.6-105.84 0-35.281 17.281-66.48 43.676-85.441-0.48047 3.8398-0.23828 7.6797 0.71875 11.762 0.71875 2.8789 1.9219 6.4805 4.3203 10.078-1.6797 5.0391-2.3984 10.32-1.6797 16.078 1.1992 9.8398 7.1992 18.48 16.078 23.52 6.9609 3.8398 13.922 6 21.121 6h1.9219c5.7617 4.0781 12.719 6.7188 21.359 6.7188 6.7188 0 13.922-1.9219 21.121-5.5195 13.199-6.4805 28.801-16.801 45.359-27.602 5.7617-3.8398 13.199-8.6406 20.398-13.199 10.809 16.57 17.047 36.488 17.047 57.605z"/>
 <path d="m812.37 985.11c0 65.039-52.801 117.84-118.08 117.84-4.3203 0-8.8789-0.23828-12.961-0.96094 0.96094-1.1992 1.4414-2.6406 2.1602-4.3242 1.1992-3.1172 1.9219-6.2383 2.1602-9.3594 32.012-8.9258 39.691-34.883 26.641-57.359 1.2148-16.984-7.5-32.344-24.238-39.121-18.508-34.371-67.629-18.41-103.92-48.238 16.801-44.641 59.762-76.32 110.16-76.32 65.277 0 118.08 52.801 118.08 117.84z"/>
 <path d="m1163.5 259.34c-31.68-20.879-102.24-12.48-102.24-12.48-2.6406 0.48047-235.44 39.359-244.56 42.961-15.359 6-22.559 13.199-44.641 16.559-21.84 3.3594-60.961 0.71875-77.762 17.52-16.801 16.801-66 66-37.922 72.238 0 0-42.48 36.48-8.3984 44.16 0 0-18 18-5.5195 24.961 12.238 7.1992 19.68-1.6797 19.68-1.6797s3.3594 18 23.281 8.1602c35.52-17.52 103.44-73.922 112.08-55.68 4.5586 9.1211 3.8398 29.762 12 34.559 7.9219 4.5586 19.68 2.1602 24-16.078 4.3203-18 11.52-23.039 0.48047-49.441 0 0 91.922-36.961 126.96-36.48 0 0-10.078 21.121-30.48 27.84-0.23828 0-0.23828 0-0.48047 0.23828-9.1211 3.1211-16.559 8.3984-22.801 14.398-14.641 0-29.762 4.8008-43.68 11.281 1.1992 11.281-1.1992 19.922-4.0781 29.039-0.71875 2.6406-1.6797 5.5195-2.3984 8.6406-6.4805 26.879-24.961 36.48-40.078 36.48-6.9609 0-13.68-1.6797-19.68-5.2812-0.23828 0-0.23828-0.23828-0.48047-0.23828 3.8398 12.48 6 25.441 6 39.121 0 71.52-58.324 129.84-129.84 129.84-71.52 0-129.6-58.324-129.6-129.84 0-54.238 33.359-100.8 80.641-120-2.1602-22.559 18.238-48.238 53.281-83.281 18.961-18.961 49.441-20.879 73.922-22.559 6.4805-0.48047 12.48-0.96094 17.52-1.6797 0.96094-0.23828 1.9219-0.23828 2.8789-0.48047 4.0781-4.5586 8.1602-10.32 11.281-17.762 8.3984-20.879 17.039-59.762 6-56.879-11.039 2.8789-13.922 2.8789-13.922 2.8789s10.559-143.28-54.961-169.2c-65.52-26.16-137.52-8.3984-161.04 40.559-22.32 46.559-18.961 129.6-11.281 141.12v0.48047s-28.559-1.4414-19.68 21.84c8.3984 23.281 31.441 73.922 43.922 59.039 0 0 13.922 74.883 0 100.08-13.922 25.441-113.04 65.039-143.76 76.078-32.16 11.762-114 17.039-143.04 75.359l0.011719 0.015625-0.007813-0.003906s-99.277 45.312-120.58 65.094c-21.309 19.781-127.07 89.406-138.48 160.55 0 0-17.879 35.598 35.176 56.484 53.059 20.887 142.46 57.234 162.51 71.02 20.055 13.789 147.89 29.242 170.45 38.855 22.559 9.6055 83.137 35.926 86.059 63.918 0 0-5.8164 71.207 8.4805 65.129 14.297-6.0781 18.941-31.453 18.941-31.453s29.961 32.98 52.27 40.324c22.309 7.3398 138.65 28.617 90.082-17.691 0 0 66.363 3.0078 36.711-31.727 0 0 9.8633-21.957-17.602-24.652 0 0 0.98828-13.434-15.641-18.602-16.629-5.1719-59.52-7.3945-88.977-34.836s-88.375-61.742-114.61-75.059-195.31-64.969-221.14-121.46c0 0 16.82-25.109 36.512-26.426 19.676-1.3086 109.79-33.68 121.89-48.73 0.48828 0.93359 1.1055 2.0039 1.3672 2.6914 0.48047 1.4414 1.4414 3.6016 2.8789 6.7188 9.6016 20.641 37.441 79.68 57.84 160.8 4.8008 1.9219 8.6406 3.6016 11.52 5.0391 17.281 8.8789 68.398 37.199 104.16 65.281 22.078-49.441 71.762-83.762 129.36-83.762 78.238 0 142.08 63.602 142.08 141.84s-63.84 141.84-142.08 141.84c-15.359 0-30-2.3984-43.922-6.9609-6.7188 0.96094-12.719 0.96094-16.32 0.96094-29.039 0-67.922-7.9219-81.602-12.48-12.719-4.0781-25.922-13.441-37.199-22.801-4.5586 5.5195-10.078 10.324-17.039 13.199l-4.5586 1.9219-6.7188 0.48047c-6.4805 0-12.719-2.3984-17.52-6.7188-2.1602 24.961-6.2383 50.398-12 76.32h453.36s-39.359-160.32-18.48-257.04c20.641-96.961 84-357.6 84-357.6s18.719-16.078 39.121-33.602c20.641-17.52 42.719-36.238 50.16-41.039 14.641-9.8398 71.52-36.238 95.52-132.96 0 0.023438 33.84-68.379 2.4023-89.262zm-511.83 158.56c1.4258 1.1406 4.1992 5.8906 3.8398 7.6797-0.23828 1.6797-1.4414 2.6406-2.6406 3.6016-13.992 9.3242-11.988-21.348-1.1992-11.281zm8 40.078c-1.418 1.1367-8.0273 1.1992-9.8398 1.1992-8.7031 0-3.1914-17.176 6.9609-14.641 2.3984 0.72266 4.9766 11.344 2.8789 13.441zm4-73.68c-3.4258 4.5586-8.6367 2.6055-7.9219-2.3984 0-15.504 17.691-7.3672 7.9219 2.3984zm7.0391 84.238c-3.457-2.5859 4.2617-16.953 12.719-10.801 6.5938 3.293-9.2656 15.414-12.719 10.801zm21.359 585.84c0 2.8789-3.1172 5.0391-7.1992 5.0391-4.0781 0-7.4414-2.1602-7.4414-5.0391 0-2.8789 3.3594-5.2812 7.4414-5.2812 4.0781 0 7.1992 2.4023 7.1992 5.2812zm-13.199-32.641c3.3594 0 6 1.9219 6 4.3203s-2.6406 4.3203-6 4.3203-6-1.9219-6-4.3203c0-2.4023 2.6406-4.3203 6-4.3203zm-20.398-21.121c2.8789 0 5.0391 1.4414 5.0391 3.3594 0 2.1602-2.1602 3.6016-5.0391 3.6016-2.8789 0-5.0391-1.4414-5.0391-3.6016-0.003906-1.918 2.1562-3.3594 5.0391-3.3594zm-9.6016 77.281c4.8008 0 8.3984 2.8789 8.3984 6.4805 0 3.6016-3.6016 6.4805-8.3984 6.4805-4.5586 0-8.3984-2.8789-8.3984-6.4805 0-3.6016 3.8398-6.4805 8.3984-6.4805z"/>
</svg>
