<?xml version="1.0" encoding="UTF-8"?>
<svg width="1200pt" height="1200pt" version="1.1" viewBox="0 0 1200 1200" xmlns="http://www.w3.org/2000/svg">
 <path d="m295.39 361.23-0.37109 2.2461-2.832 17.227c-2.3984-0.042969-58.141-1.0547-54.602-0.99219-0.71094 2.4297-8.0898 27.668-7.3828 25.25l-16.258 0.16797 1.3789 19.23c2.418-0.32422 30.734-4.125 28.316-3.8008 0.39453-2.4062 4.9531-30.121 4.5586-27.711 2.4531-0.22656 54.059-5.0195 50.773-4.7148 0.11328-2.4141 1.1602-24.707 1.0469-22.293l41.312-6.1211-44.008 1.4453z"/>
 <path d="m224.99 294.94c1.5586-2.418 18.496-28.711 16.938-26.293 2.3984 0.91016 62.203 23.66 58.496 22.25 2.4805-1.8438 22.895-17.023 20.418-15.18l42.973 24.004c-2.4141-1.6445-45.867-31.211-43.098-29.332-2.4062 1.4727-23.441 14.32-21.035 12.848-2.418-1.1797-66.016-32.188-61.953-30.207-1.9062 2.4297-18.453 23.555-16.551 21.121l-28.98-21.621-10.832 15.832c2.418 1.4805 46.414 28.277 43.625 26.578z"/>
 <path d="m490.63 188.51 0.91016-0.39062 0.046875-1.2227 0.31641-31.414c2.4102-1.332 43.484-24.027 40.867-22.582 0.14453-2.4102 1.6016-26.715 1.457-24.301l21.738-5.4219-5.8398-18.27c-2.4883 0.95312-34.094 13.059-31.602 12.105 0.12109 2.4141 1.5977 31.352 1.4727 28.938-2.3984 1.7305-37.922 27.348-35.52 25.617 0.25 2.4062 3.8555 37.078 3.6055 34.676l-22.504 14.297z"/>
 <path d="m267.62 212.02c2.1406-2.4062 24.598-27.637 22.457-25.23 2.1484 2.4023 39.047 43.664 36.707 41.051 1.7188-2.3984 20.391-28.484 18.672-26.082l26.672 31.473c-1.6602-2.4023-28.285-41-26.586-38.535-2.082 2.4297-20.93 24.406-18.844 21.977-1.8359-2.4844-37.953-51.344-35.68-48.266-2.4062 2.2383-24.195 22.496-21.793 20.262l-19.551-27.992-15.145 11.656c2.0508 2.457 35.137 42.145 33.09 39.688z"/>
 <path d="m355.06 138.72c2.418 0.32031 28.242 3.7266 25.82 3.4062 0.21875 2.457 4.1797 47.078 3.9375 44.348 2.4141 0.73828 28.484 8.7227 26.07 7.9844l7.6523 31.109c-0.28125-2.3984-4.2852-36.527-4.0039-34.125-2.4336-1.082-24.941-11.098-22.504-10.016 0.070312-2.4258 1.6016-53.051 1.5039-49.836-2.4453-0.63672-25.02-6.5078-22.574-5.8711 0.3125-5.6406 0.39062-11.246 0.46484-16.848l-17.871-6.8672c-0.09375 14.594 0.64453 22.195 1.5039 36.715z"/>
 <path d="m546.4 224.08c-2.418 0.019531-39.312 0.32812-36.895 0.30859-1.293 2.4023-16.465 30.602-15.176 28.199l-18.352-5.332c2.4336 1.0859 22.066 9.8594 19.633 8.7734 1.7188-2.4023 19.199-26.836 17.48-24.434 2.4453 0.3125 44.012 5.6133 41.438 5.2852 1.1172-2.418 9.2422-20.008 8.125-17.586l18.605 8.4492 6.5898-18.07c-2.4219-0.71484-36.609-10.809-34.188-10.094-0.003906 0-7.9805 26.922-7.2617 24.5z"/>
 <path d="m527.45 390.53c-51.055-25.898-54.055 5.3828-63.359 24-13.891 27.781-35.867 57.867-30.238 113.52 5.0391 48.238 32.641 93.84 73.441 120.24 35.902 22.734 94.527 21.531 105.36 12 26.328-21.551 24.168-102.46 22.801-121.2-11.094 20.953-34.625 83.129-72 86.16l-2.6406 0.23828c-10.559 0-19.68-5.0391-25.199-13.922-1.1992-1.9219-3.1211-5.2812-4.3242-11.039-5.7617 3.1211-12.238 5.0391-18.961 5.0391-5.5195 0-10.801-1.1992-15.84-3.6016-7.4414-3.6016-12.961-9.6016-15.602-17.281-4.3203-12.238-0.48047-25.68 2.6406-33.602-27.164-1.5117-43.992-27.637-10.559-74.879-22.305-29.754 26.625-64.25 54.48-85.672z"/>
 <path d="m1170.1 225.98c-16.801-28.078-14.879-42.961-49.68-37.922-34.801 5.0391-111.84 0.96094-219.12 29.281-193.63 51-195.9 62.832-272.88 123.36-71.805 56.445-184.73 136.04-114.24 122.88 0 0-49.68 54.719-32.398 62.879 16.078 7.6797 66.238-46.32 72.238-52.559-37.973 69.43-61.324 99.688-47.281 106.32 8.6406 4.0781 16.801-0.71875 35.039-19.68 17.039-18 43.441-58.559 46.801-63.602l-21.602 57.602s-23.52 48.238-5.2812 46.801c30.844-2.4375 50.23-96.406 98.16-133.68 8.3984-6.4805 17.281-10.801 26.398-11.52 0 0-3.1211 7.1992-6.7188 17.762-10.078 28.559-24 82.801 10.078 91.922 0 0 10.078 6.2383 13.199-25.199 2.1602-22.559 11.52-41.039 16.801-49.922 2.3984-3.6016 3.8398-5.7617 3.8398-5.7617s21.602-46.324 24.719-72.238c0-0.23828 0-0.48047 0.23828-0.71875 3.6016-28.801 22.078-53.52 47.762-66.961 39.121-20.641 104.64-50.641 152.64-49.922 7.6797 0.23828 12.48 8.3984 8.8789 15.121-57.184 105.12-76.453 129.21-192.49 180.94-37.156 16.566-39.52 54.176-38.52 51.77-3.8398 39.121-21.121 47.281-35.039 47.281h-6.7188l-4.0781-1.9219c-8.3984-2.6406-15.359-7.1992-21.121-13.199-2.3398 59.617-9.9727 114.96-69.602 114.96-38.664-0.57031-60.219 1.0898-96-21.602-75.863-49.539-113.05-151.73-58.801-250.56 13.613-25.859 26.535-93.68 112.32-43.441 16.801-13.676 40.559-32.641 63.84-50.879h-175.68c2.1602 51.359-53.281 143.52-53.281 143.52-34.078 6.9609-103.68 43.68-103.68 43.68-146.4 14.734-140.54 179.72-175.92 259.68-48.414 110.36-68.852 283.81-78.238 344.64h132.72l76.559-271.44c16.801 66.48 27.359 271.44 27.359 271.44h517.2s10.801-204.96 27.359-271.44l67.441-246.96 1.4414-5.2812-0.003906-0.003906c69.781-58.109 341.74-287.85 295.34-365.42zm-668.82 233.27c-6.7578 0.56641-6.5-9.5742-0.097656-11.867 4.0703-1.457 7.9414 4.1523 6.9102 7.0273-0.37891 1.0625-4.4375 4.6406-6.8125 4.8398zm-20.145 52.109c0.14453-1.875 0.55859-2.4219 1.7031-3.4258 5.9805-5.2344 10.695-10.473 14.773-3.668 10.586 17.645-18.324 30.828-16.477 7.0938zm38.746 57.812c-2.4922 3.5195-4.2344 7.8125-12.707 4.7539-6.9062-2.4922 2.1758-22.801 8.3242-18.207 4.5156 3.3711 6.0156 3.4883 5.7852 9.2617-0.03125 0.79688-0.28125 2.6016-1.4023 4.1914zm43.254 22.375c-11.09-0.41406-3.0078-16.105-0.32812-16.516 1.3281-0.20312 5.8438 2.4375 6.2891 4.6133 0.64453 3.1289-1.8242 12.059-5.9609 11.902zm121.44-36.699c-3.3672-6.9258-2.9023-4.6836-2.8672-13.758 0.015625-2.8984 0.59375-4.2578 3.8867-4.9688 24.785-5.375 10.93 43.312-1.0195 18.727z"/>
</svg>
