<?xml version="1.0" encoding="UTF-8"?>
<svg width="1200pt" height="1200pt" version="1.1" viewBox="0 0 1200 1200" xmlns="http://www.w3.org/2000/svg" fill="#1b4d70">
 <path d="m301.82 127.56c-0.55078-2.3984-6.793-29.52-6.2383-27.121 2.4883-1.832 35.367-26.074 32.883-24.238-0.42578-2.4023-4.0234-22.801-3.6016-20.398l18.961-7.6797-6-12.961c-2.418 1.2656-29.059 15.184-26.641 13.922 0.69531 2.4297 7.4141 25.949 6.7188 23.52-2.4102 2.1875-30.969 28.105-28.559 25.922 3.4062 9.9688 10.559 30.883 9.6016 28.078l-18.238 14.641c2.4102-1.5703 23.527-15.25 21.113-13.684z"/>
 <path d="m112.7 176.04c1.6172-2.4141 17.219-25.695 15.602-23.281 2.4336 1.6914 44.441 30.906 41.762 29.039 1.2891-2.4062 14.008-26.164 12.719-23.762l30.48 23.039c-2.4062-2.1133-34.086-29.953-31.68-27.84-1.5039 2.4219-14.461 23.301-12.961 20.879-2.4258-1.9961-44.68-36.766-42-34.559-1.9258 2.4141-18.004 22.574-16.078 20.16l-24.961-21.602-8.8789 11.039c2.4688 1.8516 38.469 28.734 35.996 26.887z"/>
 <path d="m88.703 250.68c1.1328-2.4102 12.172-25.934 11.039-23.52 2.4023 0.44531 61.875 11.504 58.078 10.801 2.4102-2.2305 18.73-17.352 16.32-15.121l44.16 14.16c-2.4688-1.0039-47.773-19.414-44.879-18.238-2.4805 2.0273-19.52 15.945-17.039 13.922-2.4805-0.66406-65.891-17.625-61.922-16.559-1.3398 2.4219-12.383 22.34-11.039 19.922l-32.641-14.16-5.2812 13.441c2.5117 0.88672 45.848 16.293 43.203 15.352z"/>
 <path d="m180.62 104.76c2.4141-0.070312 26.656-0.79297 24.238-0.71875 0.77344 2.4062 12.535 38.883 11.762 36.48 2.4219 0.29688 27.863 3.418 25.441 3.1211l12.238 24.719c-0.94141-2.4922-11.262-29.855-10.32-27.359-2.3984-0.55078-25.441-5.832-23.039-5.2812-0.50781-2.4102-9.1758-43.582-8.6406-41.039-2.4102-0.18359-24.25-1.8633-21.84-1.6797-0.96094-5.0391-1.9219-10.078-3.3594-14.879l-14.16-2.3984c2.4531 10.727 3.8945 15.469 7.6797 29.035z"/>
 <path d="m178.94 300.84c-0.38281-2.4102-3.2617-20.652-2.8789-18.238l37.199-10.559c-2.4258 0.44922-44.074 8.1523-41.52 7.6758 0.14062 2.4102 1.0977 18.973 0.96094 16.559-2.4062 0.32422-53.156 7.1562-49.922 6.7188-0.18359 2.4102-1.8633 24.488-1.6797 22.078l-15.359 2.6406 3.1211 13.922c2.4375-0.66797 26.914-7.3867 24.48-6.7188-0.074219-2.4141-0.79297-25.695-0.71875-23.281 2.3984-0.55469 49.289-11.488 46.316-10.797z"/>
 <path d="m326.3 140.4c-0.90625 2.5039-10.027 27.707-9.1211 25.199l-18-2.1602 18.719 4.3203 0.71875 0.23828 0.48047-0.96094 10.801-21.84c2.4141-0.089843 41.102-1.5312 38.641-1.4414 0.53906-2.3984 4.1367-18.48 3.6016-16.078l20.16 4.5586 2.3984-14.16c-2.3984-0.27344-34.078-3.8711-31.676-3.6016-0.27734 2.3984-2.6797 23.039-2.3984 20.641-2.4141 0.375-36.734 5.6523-34.324 5.2852z"/>
 <path d="m1175.8 355.68c-3.3594-126.96-98.641-179.28-233.28-165.36h-4.3242c-33.453 0-91.191-5.1875-117.84-25.676-36.48-27.84-15.121-140.64-15.121-140.64h-288.48s2.3984 99.602-28.078 162.48c-1.1992 2.6406-2.3984 5.2812-3.8398 7.6797-0.23828 0.48047-0.48047 0.96094-0.71875 1.4414-1.4414 2.3984-2.8789 4.8008-4.5586 7.1992 0.48047 0.23828 1.1992 0.23828 1.6797 0.48047 14.348 4.1328 94.625 29.641 111.36 41.52 33.957 23.953 59.566 79.914 40.559 157.68-10.953 43.594-49.621 151.81-86.879 171.36-24.422 13.258-87.832 2.4062-114.72-3.6016-47.418-11.02-88.941-32.418-198.96-80.879-46.348-20.656-96.27-48.145-106.32-98.398-47.52 27.602-78.719 71.52-81.359 118.32-4.3203 73.68-36.719 564.72-11.039 666.72h220.56l9.3594-108.24 26.641 108.24h765.12l96-599.28c0.003906 0 27.125-111.84 24.242-221.04z"/>
 <path d="m242.39 467.28c113.16 49.754 150.77 69.363 194.64 79.441 18.758 4.2656 81.184 15.059 98.16 5.7617 25.141-13.27 137.06-222.82 43.441-288.24-15.547-11.105-100.37-36.945-110.4-39.602-3.1211 4.3203-6.7188 9.3594-10.801 14.641 57.781 67.41 80.902 73.129 70.801 143.28-3.1211 16.078-14.641 27.359-30 30.48-16.672 36.664-46.484 37.93-81.84 19.68-16.523 23.594-34.559 19.398-36.961 20.641-7.4414 0-28.32-0.23828-70.559-35.281-33.668 24.98-87.914-11.391-107.52-40.801-0.71875 0-4.3203-1.1992-5.5195-1.1992l-15.602-2.1602-1.4414-5.0391c-10.559 2.8789-20.641 6.4805-30.238 10.801 5.8867 45.211 52.984 69.496 93.836 87.594z"/>
 <path d="m248.66 248.29c-20.242 10.121-7.1172 15.719-30.961 33.602-9.6016 7.1992-30.238 30.961-18.719 70.32 0 0 15.84 2.1602 22.559 12 14.504 22.312 71.25 63.43 82.801 17.281 2.7734 5.582 70.461 68.418 89.281 40.801 0.91406-2.4062 14.848-13.188 6.9609-28.078 0 0 2.6406 2.1602 7.1992 5.2812 14.641 10.078 47.762 30.48 60.48 15.602 5.9727-7.207 14.012-18.992 9.8398-27.359 0.71875 0 2.3984 0.71875 4.8008 1.1992l0.23828 0.23828c6.9609 1.4414 18.961 1.9219 21.602-11.281 13.02-64.285-36.469-78.238-77.762-138.96 0 0 0.71875-0.71875 1.6797-2.1602 7.6797-9.3594 38.16-48 37.922-62.398-4.6055-2.1914-6.1641-65.344-84.238-10.32-25.199 17.762-43.199 7.6797-43.199 7.6797s-21.117-4.0781-30.719 15.602c-9.6016 19.68-10.801 22.559-18.719 23.039-7.9219 0.23828-25.199 0.23828-34.559 29.52-0.007813 0.71484-0.24609 5.2734-6.4883 8.3945z"/>
</svg>
