<?xml version="1.0" encoding="UTF-8"?>
<svg width="1200pt" height="1200pt" version="1.1" viewBox="0 0 1200 1200" xmlns="http://www.w3.org/2000/svg" fill="#f1f5f9">
 <path d="m475.35 335.43c0 1.1992 0.23828 7.4414 0.48047 15.121 5.5195 1.1992 12 2.1602 19.922 2.6406 44.777-9.7305 65.711 11.711 88.801 49.68 6.543-1.3086 21.758 0.085937 30 1.6797 20.352-34.074 39.395-57.812 78.719-52.559 0-10.586 1.0508-13.199 1.9219-20.16 0 0 9.6016 8.1602 15.121-2.1602 5.7617-10.32 28.078-74.398 24.961-87.84-3.1211-12.961-8.6406-12.48-15.602-8.1602 0 0 12.961-147.12-48-180.24-60.719-32.641-144.96-37.922-187.2 18.961-36.719 50.16-37.199 109.68-31.441 147.36 0.23828 0.71875 0.23828 1.6797 0.48047 2.3984 0.48047 2.3984 0.96094 4.5586 1.1992 6.2383 0 1.1992 0 2.1602 0.23828 2.8789 0.48047 1.9219 0.48047 2.6406 0.48047 2.6406s-27.602 3.3594-18 37.199c10.078 33.84 37.918 64.32 37.918 64.32z"/>
 <path d="m575.66 644.11c6.9492 0.29297 14.926 0.58594 23.727 0.66406-6.8398-0.92578-14.77-1.375-23.727-0.66406z"/>
 <path d="m576.39 587.18c-2.1602 0.23828-4.3203 0.23828-6.2383 0.23828-6.7188 0-12.48-1.1992-17.52-3.3594-3.8398 1.1992-7.9219 1.9219-12.719 1.9219-7.4414 0-18.961-2.1602-30.719-12.238-11.762-10.078-20.16-19.68-24.719-25.68 6.4805 53.52 52.32 94.801 107.28 94.801 46.801 0 86.879-29.762 101.76-71.52-0.96094 0.96094-1.6797 1.6797-2.6406 2.3984-11.762 10.078-23.281 12.238-30.719 12.238-4.8008 0-9.1211-0.71875-12.719-1.9219-5.0391 2.1602-11.039 3.3594-17.762 3.3594-1.9219 0-3.8398 0-6-0.23828-10.078-1.1992-18.48-6.4805-23.52-14.398-5.2891 7.918-13.688 13.199-23.77 14.398z"/>
 <path d="m1120.3 307.12c-53.531 2.4336-113.39-10.703-213.63 20.438 0 0-65.449 17.336-79.617 18.188-65.312 3.918-62.309 27.668-121.32 31.301-14.008 0.86328-28.879-8.1875-46.336 7.1094-17.457 15.301-70.906 102.16-29.957 96.77 0 0-30.312 51.324-7.2266 57.695 0 0-11 22.977 4.0859 24.605 15.09 1.6289 19.301-7.6133 19.301-7.6133s12.914 14.406 29.496 0c16.586-14.406 25.691-27.594 25.691-27.594s32.895-28.273 44.992-35.207c12.098-6.9336 11.824-9.1094 11.824-9.1094s41.867 14.68 46.895 27.051c5.0312 12.371 22.973 29.902 27.867 25.148 4.8945-4.7578 4.8945-14.406 4.8945-14.406s12.641-11.961 4.4844-25.555c-8.1562-13.59-18.895-24.602-19.707-25.691-0.8125-1.0859-14.816-21.203-12.098-23.105s70.816-18.215 70.816-18.215l59.973-11.238-54.602 26.457c-9.7383 4.3828-31.062 9.4023-39.711 18.004 19.293 24.113 31.555 43.16 13.922 69.121-4.1484 19.367-14.449 23.633-18.238 28.559l-12 0.96094c-20.398 0-39.602-24-46.559-38.398-3.6016-2.6406-12.238-7.1992-21.602-11.281-3.2891 2.1875-9.3438 4.418-38.16 28.801-2.1602 55.68-38.641 102.24-88.801 119.52-0.71875 3.8398-2.8789 7.1992-6.7188 8.8789 0.23828 1.6797 0 3.8398-3.1211 6 0 0 9.8398 3.1211 16.32 1.1992 6.4805-1.6797 16.559-0.48047 17.52 5.5195 1.4414 11.039-28.078 12.961-34.801 14.641 0 0 4.8008 6 5.5195 10.32 9.1172 6 6.2383 19.441-2.3984 22.078 0.71875 1.6797 2.6406 5.2812 6.2383 5.5195 4.3203 0.48047 24.238-5.7617 26.16 1.4414 1.9219 6.9609 2.6406 17.039-12 15.602-42.719-4.5586-7.9219 17.52-17.281 21.121h-0.71875c7.4414 4.8008 7.1992 17.762-0.71875 21.84 12.961 8.1602 32.879-9.1211 34.32 1.4414 0.71875 6.9609-7.6797 12.48-10.32 14.16-2.6406 1.6797-27.121 3.1211-27.121 3.1211s11.52 19.68 5.5195 21.602c-0.71875 0.23828-2.6406 0.71875-5.5195 0.96094 3.8398 0.96094 6.9609 3.3594 8.3984 6.7188 0-0.71875 0-1.4414-0.23828-2.3984 0 0 7.1992 7.4414 14.879 4.8008 7.6797-2.3984 27.359-6.7188 25.441 0.71875-5.2812 22.078-45.359 8.1602-45.359 27.359 10.078 5.0391 7.9219 24.238-6.4805 23.52 9.6016 7.9219 32.879 9.8398 25.922 17.281-4.3203 4.5586-8.6406 3.8398-12.48 2.6406-3.8398-1.4414-11.52 0.48047-10.559 2.3984 0.48047 0.71875 1.4414 2.3984 2.1602 4.0781 9.8398 4.0781 10.801 18.238 0.71875 22.559 0.23828 1.9219 0 4.0781-3.1211 6.2383 0 0 9.8398 3.1211 16.32 1.4414 6.4805-1.9219 16.559-0.71875 17.52 5.2812 1.4414 11.039-28.078 12.961-34.801 14.641 0 0 4.8008 6 5.5195 10.324 9.1172 6 6.2383 19.441-2.3984 22.32 0.71875 1.4414 2.6406 5.0391 6.2383 5.2812 4.3203 0.48047 24.238-5.5195 26.16 1.4414 1.9219 7.1992 2.6406 17.039-12 15.602-43.922-4.5586-6 18.719-18 21.359 7.6758 3.8398 7.9219 16.801-0.96094 21.602 12.719 7.9219 33.121-8.8789 34.559 1.4414 1.9219 18.48-34.32 16.559-37.441 17.281 0 0 11.52 19.68 5.5195 21.84-0.71875 0.23828-2.6406 0.48047-5.5195 0.71875 3.8398 0.96094 6.9609 3.3594 8.6406 6.7188 0-0.71875-0.23828-1.4414-0.48047-2.1602 0 0 7.1992 6.9609 14.641 4.8008 38.879-12 26.16 10.324 11.52 12.961-7.9219 1.4414-33.359 2.3984-31.441 16.32 1.6797 10.559 2.1602 17.281-0.71875 20.879h218.4s22.801-453.84 89.281-529.68c1.4531-1.8125 2.3711-3.9492 3.3438-6.0469l1.1992 0.72656s83.711-49.906 106.1-64.504 121.66-97.324 128.47-170.8c6.8125-73.496-0.97656-95.891-54.504-93.457z"/>
 <path d="m541.83 900.62c5.7617-1.1992 8.3984-3.1211 9.6016-5.2812-16.559-2.3984-14.16-18.48-5.5195-23.281-2.3984-1.9219-12.238-9.6016-28.801-12.48-16.559-3.1211-20.879-18.961-17.52-18.961 0.71875 0 11.039 1.9219 40.559 2.6406 0.71875-3.8398 2.8789-6.2383 6.2383-7.6758-12.961-2.8828-3.6016-6.2383 0.71875-22.324 0 0-38.398-0.96094-37.199-11.52 1.4414-10.801 3.6016-10.32 6.7188-9.1211 2.6406 1.1992 20.398 1.9219 27.602-0.48047-6.2383-3.8398-6.9609-14.641 0.48047-19.676-4.8008-2.1602 5.2812-14.879 3.1211-16.801-2.6406-2.1602-17.281-4.8008-23.039-4.0781-5.7617 0.71875-13.441-7.6797-10.559-13.441 6-13.676 28.801-0.96094 32.879-10.078-7.6797-3.1211-9.8398-12.719-5.7617-18.719-0.96094-1.4414-3.6016-5.5195 5.2812-11.281 0 0-9.3594-6-19.922-6-10.801 0-15.121-3.1211-13.68-7.1992 1.4414-4.0781 4.5586-11.52 12-10.078 7.4414 1.4414 28.801 3.6016 19.922-7.1992 0 0 0.48047 0 0.71875-0.23828-4.8008-2.1602-6.7188-6.9609-6.4805-11.52-58.949-25.391-86.355-90.047-79.199-129.36-18.285-13.715-13.77-9.9805-21.84-15.359-9.6016 4.0781-18.238 8.6406-21.602 11.281-22.422 46.387-54.004 37.234-56.398 38.398-3.0625-3.6367-16.844-9.6016-20.398-29.52-8.6406-12.48-12.238-30.238-2.6406-47.039-59.168-29.605-51.949-31.078-56.367-37.137l-21.449-29.398 59.973 11.238s68.098 16.309 70.816 18.215c2.7188 1.9023-11.281 22.02-12.098 23.105-0.81641 1.0859-11.555 12.098-19.707 25.691-8.1562 13.59 4.4844 25.555 4.4844 25.555s0 9.6523 4.8945 14.406c4.8945 4.7578 22.836-12.777 27.867-25.148 5.0312-12.371 46.895-27.051 46.895-27.051s-0.27344 2.1758 11.824 9.1094c12.098 6.9297 44.992 35.207 44.992 35.207s9.1094 13.184 25.691 27.594c16.582 14.406 29.496 0 29.496 0s4.2109 9.2422 19.301 7.6133c15.09-1.6328 4.0859-24.605 4.0859-24.605 23.086-6.3672-7.2266-57.695-7.2266-57.695 40.949 5.3867-12.5-81.465-29.957-96.77-17.457-15.301-32.328-6.25-46.336-7.1094-59.012-3.6328-56.008-27.383-121.32-31.301-14.168-0.85156-79.617-18.188-79.617-18.188-100.25-31.145-160.1-18.004-213.63-20.438-53.527-2.4336-61.312 19.953-54.5 93.434s81.535 176.33 103.92 190.93c22.387 14.598 79.906 58.543 79.906 58.543l0.25781-0.10938c-0.03125 0.039063-0.078125 0.10938-0.10938 0.15234 0 0 1.9219 1.9219 5.0391 5.5195 8.1602 9.3594 18.961 31.199 30.48 50.16 31.199 51.359 66.719 465.12 66.719 465.12h234c-2.1602-2.3984 3.1211-20.16 0.23828-22.32-2.3984-1.9219-12-9.3594-28.559-12.48-16.559-3.1211-20.879-18.961-17.52-18.961 3.3594 0 34.801 4.5586 39.602 2.6406 0.23828-0.48047 0.71875-0.23828 0.96094-0.23828 0.96094-3.6016 2.8789-6 6.2383-7.1992-12.961-3.1211-3.6016-6.2383 0.71875-22.32 0 0-38.398-1.1992-37.199-11.762 1.4414-10.559 3.6016-10.32 6.7188-8.8789 2.6406 0.96094 20.398 1.6797 27.602-0.48047-6.2383-4.0781-6.9609-14.641 0.48047-19.922-4.8008-2.1602 5.2812-14.879 3.1211-16.801-2.6406-2.1602-17.281-4.8008-23.039-4.0781-5.7617 0.96094-13.441-7.6797-10.559-13.441 6-13.441 28.559-0.96094 32.879-10.078-7.4414-2.6406-9.3594-12.238-5.5195-18.48-0.96094-1.1992-4.0781-5.5195 5.0391-11.52 0 0-9.3594-6-19.922-6-10.801 0-15.121-3.1211-13.68-7.1992 1.4414-4.0781 4.5586-11.52 12-10.078 7.4414 1.4414 28.801 3.6016 19.922-6.9609 0 0 0.48047-0.23828 0.71875-0.48047-7.9219-3.3594-8.3984-14.16-1.9219-20.16-0.96094-3.6016 10.32-10.078-6.4805-7.4414-21.129 3.3516-15.371-11.77 4.5508-15.609z"/>
</svg>
