<?xml version="1.0" encoding="UTF-8"?>
<svg width="1200pt" height="1200pt" version="1.1" viewBox="0 0 1200 1200" xmlns="http://www.w3.org/2000/svg" fill="#f1f5f9">
 <path d="m713.45 740.75c-6.2383 6.4805-5.5195 13.441-8.1602 21.359-12.516 39.469-82.703 17.238-105.84 54.238 55.465 11.094 53.301-6.6094 141.6 56.641 41.242 29.574 46.66 24.301 60.719 42.238 4.2344-13.547 2-7.1406 7.1992-28.559 17.055 0 20.227-0.80469 24.719 0.48047 6.4805-30.719 9.8398-66.961 12-102.48 0.23828-8.6406 0.71875-17.52 0.96094-26.16-41.223-12.461-107.89-44.812-133.2-17.758z"/>
 <path d="m893.14 1095.6c-2.4023 0.50781-21.324 4.5039-18.922 4-1.3281-2.4297-15.453-28.281-14.125-25.852-3.5664 0.23828-22.445 1.4961-19.988 1.332l-13.324-17.32c1.4102 2.4062 13.137 22.391 11.727 19.988 2.4102 0.14063 20.801 1.207 18.391 1.0664 0.98828 2.4727 13.246 33.121 12.258 30.648 2.4062-0.22266 19.73-1.8203 17.324-1.6016 1.332 3.4648 2.6641 6.6641 4 10.129l13.324-0.26562c-5.8711-13.504-9.457-19.711-10.664-22.125z"/>
 <path d="m899.27 916.55c-2.4336 1.082-36.016 16.004-33.582 14.922 0.92969 2.4961 5.9961 16.086 5.0625 13.59l-26.648 13.59c2.5-0.91797 33.684-12.379 31.184-11.461-0.61328-2.4492-3.8125-15.242-3.1953-12.793 2.4102-0.75 40.254-12.473 37.844-11.727-0.22656-2.4062-1.8281-19.195-1.5977-16.789l10.66-4-5.0625-12.258c-2.4102 1.1875-20.801 10.246-18.391 9.0586 0.49609 2.4141 4.2305 20.273 3.7266 17.867z"/>
 <path d="m941.64 970.91c-0.59766 2.457-5.3945 22.176-4.7969 19.723h-46.105c-1.7227 2.3984-11.848 16.527-10.125 14.125l-35.977-4.7969c2.4023 0.53125 39.711 8.793 37.309 8.2617 2.0508-2.4609 12.707-15.254 10.66-12.793 2.457 0.20703 54.188 4.5391 50.902 4.2656 0.84375-2.5273 6.4375-19.316 5.5977-16.789l26.387 6.6641 2.6641-13.059c-2.418-0.375-38.926-5.9727-36.516-5.6016z"/>
 <path d="m934.45 1031.4c-1.0625 2.4414-9.8555 22.695-8.7969 20.254-2.4297-1.0898-38.676-17.348-36.246-16.258-0.70312 2.4258-6.5625 22.684-5.8633 20.258l-26.918-13.324c2.4062 1.4766 30.656 18.801 28.25 17.324 1.0078-2.4648 8.207-20.059 7.1992-17.59 2.4062 1.3711 39.711 22.691 37.309 21.32 1.3281-2.4297 10.922-20.02 9.5938-17.586l21.586 13.059 6.3984-11.727c-2.4141-1.1758-34.93-16.898-32.512-15.73z"/>
 <path d="m786.54 1097.5c1.0469 2.4492 9.5742 22.438 8.5273 19.988-2.3203 2.4023-24.438 25.32-22.121 22.922 0.9375 2.4922 6.5312 17.418 5.5977 14.922l-13.059 8.2617 7.4609 10.926c2.4062-1.9336 21.332-17.125 18.926-15.191-1.2344-2.4336-10.031-19.758-8.7969-17.324 1.8438-2.4766 19.699-26.461 17.855-23.984-1.3906-2.4062-13.117-22.66-11.727-20.254l11.992-13.859c-2.4102 2.2344-17.066 15.828-14.656 13.594z"/>
 <path d="m781.47 1058.1c-2.4102-0.16406-18.133-1.2305-15.727-1.0664-0.68359 2.4297-6.0156 21.355-5.3281 18.926-2.4023 0.48828-32.52 6.6172-30.113 6.1289-0.15234 2.4102-0.94922 15.207-0.80078 12.793l-15.191-1.0664v13.324c2.4102-0.17187 28.531-2.0391 26.121-1.8672-0.19141-2.4102-1.5273-19.199-1.3359-16.789 2.5117-0.88281 27.566-9.6758 25.051-8.793 0.375-2.4102 3.5742-22.934 3.1953-20.52z"/>
 <path d="m828.07 910.49s-11.812 53.953-47.504 60.062c-35.691 6.1055-72.641-4.8867-95.539-27.176 0 0 17.102-1.2227 28.094 8.8555s57.402 21.984 70.227 11.297c12.824-10.688 6.7188-36.332-19.234-47.324-25.953-10.992-89.465-70.535-130.07-71.145-40.609-0.61328-64.125-18.32-93.738-2.4414-29.617 15.879-62.289 12.52-97.402 23.512-35.113 10.992-221.05 58.242-221.05 58.242v177.96s209.27-112.55 261.01-99.965c51.73 12.582 117.21 48.004 136.32 63.844 55.617 46.125 74.879-13 172.25-34.793 13.176-2.9492 29.797-10.812 33.688-31.574 6.668-35.594 29.281-89.352 2.9609-89.352zm-74.941 22.008s4.1914-9.8242 13.656-5.9922c9.4648 3.832 17.727 10.184 17.965 14.855 1.8633 36.207-31.824 12.727-31.621 7.3047 0.11719-3.2344-2.3984-7.3047 0-16.168z"/>
 <path d="m574.01 812.52c15.121-32.637 44.074-40.703 77.039-45.602 50.156-7.8711 20.355-17.324 45.121-42.719 36.273-38.027 101.35-6.4688 150.96 9.6016 0.96094-66.961-2.6406-122.16-2.6406-122.16s-28.32-213.6-34.801-252.96c-6.2383-39.359 14.879-95.039 14.879-95.039s49.199-89.762 50.16-127.44c0.96094-37.676-32.398-47.762-32.398-47.762v-1.1992c-2.0781-74.742-36.582-76.109-44.879-33.602-0.71875 2.6406-0.96094 4.3242-0.96094 4.5586-61.18-30.59-55.156-4.8945-58.078-4.5586-22.078-7.6758-31.441 5.2812-35.281 13.68-1.1992 3.1211-1.6797 5.7617-1.6797 5.7617h-1.6797-0.23828c-25.441 0.40234-26.16 51.84-28.559 51.84-0.71875 6.4805-0.96094 11.039-0.96094 11.039-15.602 26.16 12.48 78.238 16.801 88.559 4.0781 10.32 11.281 11.039 11.281 11.039-11.762 40.207-26.922 80-15.602 120.48 9.6016 34.078-2.6406 91.199-2.6406 91.199l-11.039 243.12c-54.836-16.285-394.25-411.12-423.6-432.96v390.72l249.12 183.6c34.879-5.8125 53.879-24.359 79.676-19.195z"/>
</svg>
